HIERARCHY
ROOT Hips
{
  OFFSET 39.0545 98.889 3.70994
  CHANNELS 6 Xposition Yposition Zposition Zrotation Xrotation Yrotation
  JOINT spine
  {
    OFFSET 0 8.30103 0.477351
    CHANNELS 3 Zrotation Xrotation Yrotation
    JOINT spine1
    {
      OFFSET 0 10.4565 0
      CHANNELS 3 Zrotation Xrotation Yrotation
      JOINT spine2
      {
        OFFSET 0 10.0192 0
        CHANNELS 3 Zrotation Xrotation Yrotation
        JOINT Neck
        {
          OFFSET 0 25.7235 1.22641
          CHANNELS 3 Zrotation Xrotation Yrotation
          JOINT Head
          {
            OFFSET 0 7.77175 0
            CHANNELS 3 Zrotation Xrotation Yrotation
            End Site
            {
              OFFSET 0 18.812 -6.20394
            }
          }
        }
        JOINT RightShoulder
        {
          OFFSET -4.2188 10.82 -0.587439
          CHANNELS 3 Zrotation Xrotation Yrotation
          JOINT RightArm
          {
            OFFSET 0 14.1914 0
            CHANNELS 3 Zrotation Xrotation Yrotation
            JOINT RightArmRoll
            {
              OFFSET 0 7.16408 0
              CHANNELS 3 Zrotation Xrotation Yrotation
              JOINT RightForeArm
              {
                OFFSET 0 20.8665 0
                CHANNELS 3 Zrotation Xrotation Yrotation
                JOINT RightForeArmRoll
                {
                  OFFSET 0 8.03921 0
                  CHANNELS 3 Zrotation Xrotation Yrotation
                  JOINT RightHand
                  {
                    OFFSET 0 16.133 0
                    CHANNELS 3 Zrotation Xrotation Yrotation
                    End Site
                    {
                      OFFSET 0 0 0
                    }
                  }
                }
              }
            }
          }
        }
        JOINT LeftShoulder
        {
          OFFSET 4.2188 10.82 -0.587439
          CHANNELS 3 Zrotation Xrotation Yrotation
          JOINT LeftArm
          {
            OFFSET 0 14.1914 0
            CHANNELS 3 Zrotation Xrotation Yrotation
            JOINT LeftArmRoll
            {
              OFFSET 0 7.16408 0
              CHANNELS 3 Zrotation Xrotation Yrotation
              JOINT LeftForeArm
              {
                OFFSET 0 20.8665 0
                CHANNELS 3 Zrotation Xrotation Yrotation
                JOINT LeftForeArmRoll
                {
                  OFFSET 0 8.03921 0
                  CHANNELS 3 Zrotation Xrotation Yrotation
                  JOINT LeftHand
                  {
                    OFFSET 0 16.133 0
                    CHANNELS 3 Zrotation Xrotation Yrotation
                    End Site
                    {
                      OFFSET 0 0 0
                    }
                  }
                }
              }
            }
          }
        }
      }
    }
  }
  JOINT RightUpLeg
  {
    OFFSET -7.35773 -1.34921 -1.13181
    CHANNELS 3 Zrotation Xrotation Yrotation
    JOINT RightUpLegRoll
    {
      OFFSET 0 18.9168 0
      CHANNELS 3 Zrotation Xrotation Yrotation
      JOINT RightLeg
      {
        OFFSET 0 -23.4256 0
        CHANNELS 3 Zrotation Xrotation Yrotation
        JOINT RightLegRoll
        {
          OFFSET 0 23.5023 0
          CHANNELS 3 Zrotation Xrotation Yrotation
          JOINT RightFoot
          {
            OFFSET 0 19.5617 0
            CHANNELS 3 Zrotation Xrotation Yrotation
            JOINT RightToeBase
            {
              OFFSET 0 16.3526 0
              CHANNELS 3 Zrotation Xrotation Yrotation
              End Site
              {
                OFFSET 0.00693125 7.91943 -0.912837
              }
            }
          }
        }
      }
    }
  }
  JOINT LeftUpLeg
  {
    OFFSET 7.35773 -1.34921 -1.13181
    CHANNELS 3 Zrotation Xrotation Yrotation
    JOINT LeftUpLegRoll
    {
      OFFSET 0 18.9169 0
      CHANNELS 3 Zrotation Xrotation Yrotation
      JOINT LeftLeg
      {
        OFFSET 0 23.4255 0
        CHANNELS 3 Zrotation Xrotation Yrotation
        JOINT LeftLegRoll
        {
          OFFSET 0 23.7195 0
          CHANNELS 3 Zrotation Xrotation Yrotation
          JOINT LeftFoot
          {
            OFFSET 0 19.3444 0
            CHANNELS 3 Zrotation Xrotation Yrotation
            JOINT LeftToeBase
            {
              OFFSET 0 16.3526 0
              CHANNELS 3 Zrotation Xrotation Yrotation
              End Site
              {
                OFFSET -0.0310629 7.91944 -0.912836
              }
            }
          }
        }
      }
    }
  }
}
MOTION
Frames: 9
Frame Time: 0.00208333
38.6483 98.8084 3.88517 0.750907 -2.27475 1.21712 0.0150763 -1.50447 0.162877 0.038346 1.00357 0.343709 0.0342383 2.64863 0.343233 -0.567457 23.2491 -1.09707 -0.203517 -10.9919 -1.32725 73.8886 -1.26134 -2.32436 96.5052 17.6623 30.8212 -1.69951e-006 3.37456e-006 -1.55023e-005 4.97154 0.035855 0.386695 -2.90314e-005 5.97618e-007 -3.04195 8.02959 -4.95142 0.697655 -67.8225 2.92876 -0.404436 -100.087 8.14216 -19.5255 5.43488e-006 1.88274e-006 -3.41946e-006 -9.18169 2.85583 0.800371 5.72116e-006 1.9874e-006 3.00001 -8.02903 -4.95147 -0.697695 175.993 -1.46288 0.948889 180 7.01546e-015 178.921 176.215 4.38251 179.747 1.5948e-006 1.71921e-006 0.0475725 -18.6257 67.956 19.5078 8.13649 25.2327 -3.48774 -176.166 -1.39333 1.47807 4.54188e-006 -4.6773e-006 -1.15019 -3.01569 -7.8252 0.462174 3.88482e-006 2.74377e-007 -0.089395 18.3198 67.4646 -19.0895 -8.13649 25.2327 3.48773 
38.6478 98.8084 3.88347 0.74959 -2.27264 1.22372 0.0145722 -1.50633 0.163417 0.0376125 0.999243 0.342471 0.033508 2.6443 0.342009 -0.571765 23.2802 -1.09881 -0.195575 -11.003 -1.32907 73.8872 -1.25575 -2.32176 96.4791 17.7038 30.8598 -1.69951e-006 3.37456e-006 -1.55023e-005 4.92261 0.0357691 0.389284 -2.90314e-005 5.97618e-007 -3.04195 8.02959 -4.95142 0.697655 -67.8206 2.92095 -0.400726 -100.075 8.18146 -19.4976 5.43488e-006 1.88274e-006 -3.41946e-006 -9.1888 2.89206 0.804223 5.72116e-006 1.9874e-006 3.00001 -8.02903 -4.95147 -0.697695 175.989 -1.45839 0.956641 180 7.01546e-015 178.921 176.205 4.38546 179.748 1.5948e-006 1.71921e-006 0.0475725 -18.6251 67.9553 19.5071 8.13649 25.2327 -3.48774 -176.163 -1.38496 1.47453 4.54188e-006 -4.6773e-006 -1.15019 -3.01883 -7.83168 0.462392 3.88482e-006 2.74377e-007 -0.0893947 18.3214 67.4667 -19.0912 -8.13649 25.2327 3.48773 
38.6509 98.806 3.88242 0.748134 -2.27042 1.23006 0.0140636 -1.50821 0.163979 0.0368988 0.994859 0.341177 0.0327973 2.63992 0.340727 -0.575763 23.311 -1.10053 -0.187863 -11.0134 -1.3308 73.8861 -1.24997 -2.3191 96.4525 17.7461 30.8976 -1.69951e-006 3.37456e-006 -1.55023e-005 4.87435 0.0356986 0.391642 -2.90314e-005 5.97618e-007 -3.04195 8.02959 -4.95142 0.697655 -67.8184 2.91271 -0.396834 -100.064 8.22101 -19.4698 5.43488e-006 1.88274e-006 -3.41946e-006 -9.19569 2.92773 0.808023 5.72116e-006 1.9874e-006 3.00001 -8.02903 -4.95147 -0.697695 175.986 -1.45368 0.964613 180 7.01546e-015 178.921 176.194 4.38846 179.749 1.5948e-006 1.71921e-006 0.0475725 -18.6245 67.9546 19.5065 8.13649 25.2327 -3.48774 -176.159 -1.37645 1.47076 4.54188e-006 -4.6773e-006 -1.15019 -3.02216 -7.83835 0.462616 3.88482e-006 2.74377e-007 -0.0893925 18.3231 67.4687 -19.0929 -8.13649 25.2327 3.48773 
38.6519 98.8043 3.8559 0.74658 -2.26812 1.23621 0.0135518 -1.51012 0.164557 0.036199 0.990436 0.339843 0.0321005 2.63549 0.339405 -0.579543 23.3415 -1.10222 -0.180313 -11.0232 -1.33247 73.8851 -1.24404 -2.31638 96.4257 17.789 30.9348 -1.69951e-006 3.37456e-006 -1.55023e-005 4.82656 0.0356388 0.393839 -2.90314e-005 5.97618e-007 -3.04195 8.02959 -4.95142 0.697655 -67.8159 2.90416 -0.392812 -100.053 8.26072 -19.442 5.43488e-006 1.88274e-006 -3.41946e-006 -9.20244 2.96302 0.811785 5.72116e-006 1.9874e-006 3.00001 -8.02903 -4.95147 -0.697695 175.982 -1.44882 0.972738 180 7.01546e-015 178.921 176.183 4.39151 179.75 1.5948e-006 1.71921e-006 0.0475725 -18.6239 67.9539 19.5059 8.13649 25.2327 -3.48774 -176.156 -1.36785 1.46683 4.54188e-006 -4.6773e-006 -1.15019 -3.02561 -7.84515 0.462844 3.88482e-006 2.74377e-007 -0.089389 18.3248 67.4708 -19.0947 -8.13649 25.2327 3.48773 
38.6518 98.8296 3.85941 0.744971 -2.26577 1.24226 0.0130382 -1.51204 0.165145 0.035507 0.985992 0.338485 0.0314114 2.63105 0.33806 -0.583199 23.3718 -1.10392 -0.172855 -11.0327 -1.3341 73.8842 -1.23803 -2.31365 96.3985 17.8322 30.9717 -1.69951e-006 3.37456e-006 -1.55023e-005 4.77904 0.0355852 0.395945 -2.90314e-005 5.97618e-007 -3.04195 8.02959 -4.95142 0.697655 -67.8134 2.89543 -0.388718 -100.042 8.30054 -19.4142 5.43488e-006 1.88274e-006 -3.41946e-006 -9.2091 2.99808 0.815528 5.72116e-006 1.9874e-006 3.00001 -8.02903 -4.95147 -0.697695 175.978 -1.44388 0.980951 180 7.01546e-015 178.921 176.172 4.3946 179.751 1.5948e-006 1.71921e-006 0.0475725 -18.6233 67.9532 19.5053 8.13649 25.2327 -3.48774 -176.153 -1.35919 1.4628 4.54188e-006 -4.6773e-006 -1.15019 -3.02914 -7.85203 0.463074 3.88482e-006 2.74377e-007 -0.0893847 18.3265 67.473 -19.0964 -8.13649 25.2327 3.48773 
38.6565 98.826 3.86715 0.743347 -2.26342 1.24829 0.0125243 -1.51397 0.165735 0.0348167 0.981541 0.337123 0.0307241 2.6266 0.336709 -0.586823 23.4021 -1.1056 -0.16542 -11.0421 -1.33573 73.8834 -1.23201 -2.3109 96.3713 17.8755 31.0086 -1.69951e-006 3.37456e-006 -1.55023e-005 4.73158 0.0355331 0.398027 -2.90314e-005 5.97618e-007 -3.04195 8.02959 -4.95142 0.697655 -67.8108 2.88667 -0.384605 -100.031 8.3404 -19.3864 5.43488e-006 1.88274e-006 -3.41946e-006 -9.21574 3.03309 0.819265 5.72116e-006 1.9874e-006 3.00001 -8.02903 -4.95147 -0.697695 175.975 -1.43891 0.989186 180 7.01546e-015 178.921 176.16 4.39768 179.752 1.5948e-006 1.71921e-006 0.0475725 -18.6227 67.9525 19.5046 8.13649 25.2327 -3.48774 -176.149 -1.35052 1.45875 4.54188e-006 -4.6773e-006 -1.15019 -3.03269 -7.85893 0.463306 3.88482e-006 2.74377e-007 -0.0893803 18.3282 67.4751 -19.0982 -8.13649 25.2327 3.48773 
38.6525 98.799 3.85705 0.74175 -2.26108 1.25436 0.0120113 -1.51589 0.16632 0.0341222 0.977102 0.335771 0.0300326 2.62216 0.33537 -0.590505 23.4325 -1.1073 -0.15794 -11.0517 -1.33737 73.8825 -1.22602 -2.30817 96.3442 17.9186 31.0457 -1.69951e-006 3.37456e-006 -1.55023e-005 4.68399 0.0354779 0.400155 -2.90314e-005 5.97618e-007 -3.04195 8.02959 -4.95142 0.697655 -67.8083 2.87799 -0.380529 -100.021 8.38022 -19.3587 5.43488e-006 1.88274e-006 -3.41946e-006 -9.22243 3.06822 0.823014 5.72116e-006 1.9874e-006 3.00001 -8.02903 -4.95147 -0.697695 175.971 -1.43399 0.997377 180 7.01546e-015 178.921 176.149 4.40076 179.753 1.5948e-006 1.71921e-006 0.0475725 -18.6222 67.9518 19.504 8.13649 25.2327 -3.48774 -176.146 -1.34188 1.45475 4.54188e-006 -4.6773e-006 -1.15019 -3.0362 -7.86579 0.463536 3.88482e-006 2.74377e-007 -0.0893762 18.3299 67.4772 -19.1 -8.13649 25.2327 3.48773 
38.6565 98.809 3.85467 0.740223 -2.2588 1.26057 0.0115006 -1.51779 0.166894 0.0334176 0.97269 0.334448 0.029331 2.61775 0.33406 -0.59434 23.463 -1.10901 -0.150346 -11.0617 -1.33906 73.8814 -1.22013 -2.30547 96.3171 17.9612 31.0833 -1.69951e-006 3.37456e-006 -1.55023e-005 4.63607 0.0354151 0.402398 -2.90314e-005 5.97618e-007 -3.04195 8.02959 -4.95142 0.697655 -67.8059 2.86953 -0.376544 -100.01 8.41993 -19.3309 5.43488e-006 1.88274e-006 -3.41946e-006 -9.22924 3.10361 0.826789 5.72116e-006 1.9874e-006 3.00001 -8.02903 -4.95147 -0.697695 175.967 -1.42918 1.00546 180 7.01546e-015 178.921 176.138 4.4038 179.754 1.5948e-006 1.71921e-006 0.0475725 -18.6216 67.9511 19.5034 8.13649 25.2327 -3.48774 -176.143 -1.3333 1.45086 4.54188e-006 -4.6773e-006 -1.15019 -3.03962 -7.87255 0.463763 3.88482e-006 2.74377e-007 -0.0893731 18.3315 67.4793 -19.1017 -8.13649 25.2327 3.48773 
38.6611 98.8148 3.85231 0.738805 -2.25662 1.26699 0.0109936 -1.51967 0.167449 0.0326967 0.968323 0.333171 0.0286132 2.61338 0.332795 -0.598418 23.4939 -1.11074 -0.142569 -11.0722 -1.34082 73.8802 -1.21441 -2.30282 96.2903 18.003 31.1215 -1.69951e-006 3.37456e-006 -1.55023e-005 4.58761 0.0353399 0.404826 -2.90314e-005 5.97618e-007 -3.04195 8.02959 -4.95142 0.697655 -67.8038 2.86141 -0.372707 -99.9981 8.45947 -19.303 5.43488e-006 1.88274e-006 -3.41946e-006 -9.23622 3.13945 0.830608 5.72116e-006 1.9874e-006 3.00001 -8.02903 -4.95147 -0.697695 175.964 -1.42453 1.01336 180 7.01546e-015 178.921 176.127 4.40679 179.755 1.5948e-006 1.71921e-006 0.0475725 -18.621 67.9504 19.5027 8.13649 25.2327 -3.48774 -176.139 -1.32483 1.44716 4.54188e-006 -4.6773e-006 -1.15019 -3.04289 -7.87916 0.463985 3.88482e-006 2.74377e-007 -0.0893715 18.3332 67.4813 -19.1034 -8.13649 25.2327 3.48773 
